<svg
    id="Ebene_1"
    data-name="Ebene 1"
    xmlns="http://www.w3.org/2000/svg"
    viewBox="0 0 780.77 163.17"
    class="footer--logo__svg my-auto"
>
    <defs></defs>
    <path
        d="M130.64,577.44V532.63h3.22v44.81Zm33,0V555.81H136.24v-2.59h27.44V532.63h3.15v44.81Z"
        transform="translate(-41.53 -437.14)"
        class="cls-1"
    ></path>
    <path
        d="M198.19,577.44l-19.95-41.31v41.31h-3.15V532.63h4.41l21.91,44.81Zm23.1,0V536.13l-18.55,38.58-1.75-3.5,18.76-38.58h4.69v44.81Z"
        transform="translate(-41.53 -437.14)"
        class="cls-1"
    ></path>
    <path
        d="M285.76,577.44,267.7,535.29,255,564.7h22.75l1.05,2.45H254l-4.48,10.29h-3.29l19.53-44.88h4.06l19.25,44.88Z"
        transform="translate(-41.53 -437.14)"
        class="cls-2"
    ></path>
    <path
        d="M290.31,560.64v-19.4h3.08v19.61c0,8.75,1.68,13.86,11.34,14.35v2.59C292.48,577.65,290.31,571,290.31,560.64Zm30,16.87-.56-7.84c-1.4,4.48-5,7.63-12.67,8.05V575.2c9.8-.35,12-5.53,12-14.49V541.24h3.08l.07,36.27Z"
        transform="translate(-41.53 -437.14)"
        class="cls-2"
    ></path>
    <path
        d="M330.56,566.8V543.9h-4.34v-2.17l4.34-.49v-8.61h3V566.8c0,6.44,3.29,8.82,13.16,8.19v2.66C335.32,578.21,330.56,575.41,330.56,566.8ZM336,543.9v-2.59h10.78v2.59Z"
        transform="translate(-41.53 -437.14)"
        class="cls-2"
    ></path>
    <path
        d="M346.31,559.31c0-9.1,3.36-17.86,16.31-18.35v2.73c-10.71.49-13.23,7.57-13.23,15.62s2.52,15.33,13.23,15.75v2.73C349.46,577.37,346.31,568.55,346.31,559.31Zm18.55,18.48v-2.73c10.64-.49,13.3-7.56,13.3-15.75s-2.59-15.13-13.3-15.62V541c12.95.49,16.38,9.25,16.38,18.35C381.24,568.62,377.81,577.3,364.86,577.79Z"
        transform="translate(-41.53 -437.14)"
        class="cls-2"
    ></path>
    <path
        d="M416,577.44l-.56-9.17c-1.89,5-6.72,8.33-12.74,9.17V575c6.51-1,12-5.39,12.11-13.65l.14-3.5-14.63,2c-8.61,1.12-11.63,3-11.63,7.56,0,5.39,4.56,8,11,7.91h.63v2.45h-1.26c-7.42,0-13.52-3.08-13.52-10.22,0-6.44,4.42-8.89,14.36-10.15l15.05-2c-.21-7.35-2.31-11.56-12.25-11.84V541c13.3.28,15.19,6.38,15.19,15.83v20.65ZM389.5,554h-3.08c0-7.29,3-12.61,13.93-13v2.52C391.74,543.9,389.5,548.1,389.5,554Z"
        transform="translate(-41.53 -437.14)"
        class="cls-2"
    ></path>
    <path
        d="M423.86,560.64v-19.4h3.08v19.61c0,8.75,1.68,13.86,11.35,14.35v2.59C426,577.65,423.86,571,423.86,560.64Zm30,16.87-.56-7.84c-1.4,4.48-5,7.63-12.68,8.05V575.2c9.81-.35,12-5.53,12-14.49V541.24h3.08l.07,36.27Z"
        transform="translate(-41.53 -437.14)"
        class="cls-2"
    ></path>
    <path
        d="M466.7,538.3l-.07,39.14h-3V543.83H459v-2.1l4.62-.49v-3c0-8.68,4.9-11.48,16.25-10.78V530C469.92,529.48,466.7,531.79,466.7,538.3Zm2.38,5.53v-2.59h10.79v2.59Z"
        transform="translate(-41.53 -437.14)"
        class="cls-2"
    ></path>
    <path
        d="M485.74,569.11l-.49,8.33h-2v-49.5h3.08v21.21c1.4-4.41,5-7.84,12.88-8.26v2.66c-11.06.35-12.88,6.87-12.88,15.76,0,9.38,2.17,15.61,12.88,16v2.52C491,577.37,487.21,573.87,485.74,569.11Zm15.75,8.68v-2.52c10-.56,12.19-6.86,12.19-16,0-8.89-2.17-15.13-12.19-15.76v-2.66c12.33.35,15.34,8.26,15.34,18.42S513.82,577.44,501.49,577.79Z"
        transform="translate(-41.53 -437.14)"
        class="cls-2"
    ></path>
    <path
        d="M524.1,560.92c.28,7.7,3.5,13.79,13.09,14.35v2.52c-12.81-.63-16.31-9.24-16.31-18.48s3.57-17.86,16.31-18.42v2.52c-9.94.42-13,7.29-13.09,15h20.23c0-.14,7.08-.14,7.08-.14.06-8.12-3.16-14.22-11.91-14.85v-2.52c12,.49,15.48,9.45,15.06,20Zm15.4,16.87v-2.52c8-.35,11.34-4.76,11.91-9.17h3.21C554,572.12,549.72,577.44,539.5,577.79Z"
        transform="translate(-41.53 -437.14)"
        class="cls-2"
    ></path>
    <path
        d="M562.6,557.91v19.53h-3.08l-.07-36.2h1.82L562,549c1.4-4.9,5.46-8.26,14.35-8.12v2.8C565,543.48,562.6,548.73,562.6,557.91Z"
        transform="translate(-41.53 -437.14)"
        class="cls-2"
    ></path>
    <path
        d="M578.91,560.92c.28,7.7,3.5,13.79,13.09,14.35v2.52c-12.81-.63-16.31-9.24-16.31-18.48s3.57-17.86,16.31-18.42v2.52c-9.94.42-13,7.29-13.09,15h20.23c0-.14,7.07-.14,7.07-.14.07-8.12-3.15-14.22-11.9-14.85v-2.52c12,.49,15.47,9.45,15.05,20Zm15.4,16.87v-2.52c8.05-.35,11.34-4.76,11.9-9.17h3.22C608.8,572.12,604.53,577.44,594.31,577.79Z"
        transform="translate(-41.53 -437.14)"
        class="cls-2"
    ></path>
    <path
        d="M616.08,537.39c-2.1,0-3.22-.63-3.22-2.8s1.12-2.73,3.22-2.73,3.29.42,3.29,2.73S618.11,537.39,616.08,537.39ZM615,577.44l-.42-.42V541.24h3.08v36.2Z"
        transform="translate(-41.53 -437.14)"
        class="cls-2"
    ></path>
    <path
        d="M626.3,566.8V543.9H622v-2.17l4.34-.49v-8.61h3V566.8c0,6.44,3.29,8.82,13.16,8.19v2.66C631.06,578.21,626.3,575.41,626.3,566.8Zm5.39-22.9v-2.59h10.78v2.59Z"
        transform="translate(-41.53 -437.14)"
        class="cls-2"
    ></path>
    <path
        d="M646,560.64v-19.4h3.08v19.61c0,8.75,1.68,13.86,11.34,14.35v2.59C648.21,577.65,646,571,646,560.64Zm30,16.87-.56-7.84c-1.4,4.48-5,7.63-12.67,8.05V575.2c9.8-.35,12-5.53,12-14.49V541.24h3.08l.07,36.27Z"
        transform="translate(-41.53 -437.14)"
        class="cls-2"
    ></path>
    <path
        d="M687.48,557.91v19.53H684.4l-.07-36.2h1.75l.77,7.85c1.33-4.56,4.9-7.78,12.74-8.13v2.52C689.65,543.83,687.48,549,687.48,557.91Zm26.18,19.53h-.42V557.91c0-8.76-1.68-14-11.34-14.43v-2.59c12.18.14,14.28,6.87,14.28,17.23v19.32Z"
        transform="translate(-41.53 -437.14)"
        class="cls-2"
    ></path>
    <path
        d="M720,578.21h3.22c.07,6.93,2.38,11.41,12.67,11.83v2.66C723.53,592.21,720,587.1,720,578.21ZM738.3,592.7V590c10.57-.14,13-3.78,13-7.07,0-10.22-30.59-5.18-30.59-14.07,0-2.1,1.75-3.71,5.39-4.41-3.64-2.38-4.83-6.23-4.83-10.43,0-7.22,3-12.4,14.63-12.82v2.59c-9.24.28-11.48,4.27-11.48,10.16,0,6.23,2,10.78,11.48,11.13v2.38a22.31,22.31,0,0,1-7.49-1.4c-3.85.42-4.69,1.61-4.69,2.59,0,6.23,30.8,1.47,30.8,14.21C754.54,587.66,750.9,592.49,738.3,592.7Zm7.7-49.22c4.9,1.61,6.58,5.53,6.58,10.58,0,7.56-2.94,13-14.28,13.44v-2.38c8.89-.42,11-4.9,11-11.13,0-5.6-1.82-9.74-11-10.16v-2.59H753V543Z"
        transform="translate(-41.53 -437.14)"
        class="cls-2"
    ></path>
    <path
        id="Auswahl"
        d="M365.34,484.09l28-11.2c22.62-9.05,50.5-18.76,75-18.8h20l22,1.83,17,1.46,49,7.63c13.63,2.27,39.87,7.61,52,12.94,4.81,2.11,14.81,5.81,14.63,12.14-.17,6-9,7.83-13.63,8.89-9.75,2.25-37,5.1-47,5.12h-111l-15-1h-24l-12-1h-13l-17-1h-24l-17-1h-76l-15-1h-23l-14,1-23,1.29-15,2.43-46,7.28c-24.95,5.34-48.6,14.44-72,24.43-4.47,1.91-20.92,10.06-22.65,1.56-1.11-5.51,7.71-9.7,11.65-11.73,11.94-6.16,31.84-12.92,45-16.38,33.16-8.71,49.86-11.63,84-14l22-1.91h58l15,1h19c8.34-.14,17.72-6.9,25-10.92l39-18.78,24-9.36,11-4.41c20.18-7.19,30.37-8.2,51-10.83,7.61-1,7.4-1.71,16-1.66H484c44.9,1.05,96.36,9.94,139.45,22.67l52,17.81,76,26.17c10.69,3.77,36.4,13.71,46,15.17,5,.55,9,.18,14,0,2.12.13,6.75-.15,8.4,1.16,3.28,2.62.38,8.18-2.51,9.82-4.67,2.62-12.12-.08-16.89-1.42l-38-10c-43-9.49-87.18-10.88-131-10.42l-32,2.28c-5.92.72-13.33,3-19,.72l36-4.17,39-2.92,12-.91h19l12,.91,21,1.18,16,.91-28-8-77-26.31c-33.5-10.05-73.24-19.22-108-22.55l-20-1.26-12-.91h-30c-12.53,0-23.09,3-35,6.12a442.76,442.76,0,0,0-54,18.3l-10,3.58-29,12c-5.23,2.16-15.07,5.53-19,9h78l15,1,48,2,17,1h112l12-1h9l22-3.17c3.43-.64,12.6-3.26,12-7.87-.73-5.16-9.76-8.2-14-10-11.27-4.77-38.37-10.56-51-12.59-44.37-7.13-90.31-14.37-135-5.8-14.14,2.71-53.91,18.35-69,24.39,5.28,2.77,8.15,2.89,10,9l-18-.91c-4.56-.31-7.08.79-11-2.09,7.16,0,9.1.59,16-2Z"
        transform="translate(-41.53 -437.14)"
        class="cls-3"
    ></path>
    <line x1="57.48" y1="162.17" x2="742.85" y2="162.17" class="cls-4"></line>
</svg>
